# xmcd CD database file
#
# Track frame offsets:
#	150
#	9170
#	30987
#	51110
#	75930
#	97985
#	119242
#	136912
#	159697
#	181485
#	203125
#	217767
#	235812
#
# Disc length: 4440 seconds
#
# Revision: 0
# Processed by: cddbd v1.5.1PL0 Copyright (c) Steve Scherf et al.
# Submitted via: CDex 1.51
#
DISCID=9c11560d
DTITLE=China Music Orchestra - Made in China
DYEAR=2004
DGENRE=Ethnic
TTITLE0=誕生 〜朝〜
TTITLE1=RYDEEN
TTITLE2=出発
TTITLE3=メリーアン
TTITLE4=旅人
TTITLE5=TONG POO
TTITLE6=最初から今まで
TTITLE7=MERRY CHRISTMAS MR.LAWRENCE
TTITLE8=SUITE FROM THE PLANETS
TTITLE9=OUT OF THE BLUE
TTITLE10=大河
TTITLE11=誕生 〜夜〜
TTITLE12=DATA TRACK 13
EXTD=YEAR: 2004.07.17
EXTT0=
EXTT1=
EXTT2=
EXTT3=
EXTT4=
EXTT5=
EXTT6=
EXTT7=
EXTT8=
EXTT9=
EXTT10=
EXTT11=
EXTT12=
PLAYORDER=
